<svg width="16" height="16" viewBox="0 0 16 16" fill="none" xmlns="http://www.w3.org/2000/svg">
<path d="M13.5 7.5H3.52525L7.34475 3.862C7.54475 3.6715 7.5525 3.355 7.362 3.155C7.17175 2.95525 6.85525 2.94725 6.655 3.13775L2.293 7.29275C2.10425 7.48175 2 7.73275 2 8C2 8.267 2.10425 8.51825 2.30175 8.7155L6.65525 12.862C6.752 12.9543 6.876 13 7 13C7.132 13 7.264 12.948 7.36225 12.8448C7.55275 12.6448 7.545 12.3285 7.345 12.138L3.5095 8.5H13.5C13.776 8.5 14 8.276 14 8C14 7.724 13.776 7.5 13.5 7.5Z" fill="#F8FAFC"/>
</svg>
